<svg width="21" height="20" viewBox="0 0 21 20" fill="none" xmlns="http://www.w3.org/2000/svg">
<path fill-rule="evenodd" clip-rule="evenodd" d="M3.25 3.125C3.25 2.95924 3.31585 2.80027 3.43306 2.68306C3.55027 2.56585 3.70924 2.5 3.875 2.5H11.375C11.5408 2.5 11.6997 2.56585 11.8169 2.68306C11.9342 2.80027 12 2.95924 12 3.125C12 3.29076 11.9342 3.44973 11.8169 3.56694C11.6997 3.68415 11.5408 3.75 11.375 3.75H5.38375L18.0675 16.4325C18.1256 16.4906 18.1717 16.5596 18.2032 16.6355C18.2346 16.7114 18.2508 16.7928 18.2508 16.875C18.2508 16.9572 18.2346 17.0386 18.2032 17.1145C18.1717 17.1904 18.1256 17.2594 18.0675 17.3175C18.0094 17.3756 17.9404 17.4217 17.8645 17.4532C17.7886 17.4846 17.7072 17.5008 17.625 17.5008C17.5428 17.5008 17.4614 17.4846 17.3855 17.4532C17.3096 17.4217 17.2406 17.3756 17.1825 17.3175L4.5 4.63375V10.625C4.5 10.7908 4.43416 10.9497 4.31695 11.0669C4.19974 11.1842 4.04076 11.25 3.875 11.25C3.70924 11.25 3.55027 11.1842 3.43306 11.0669C3.31585 10.9497 3.25 10.7908 3.25 10.625V3.125Z" fill="#172B4D"/>
</svg>
