<svg width="43" height="42" viewBox="0 0 43 42" fill="none" xmlns="http://www.w3.org/2000/svg">
<g clip-path="url(#clip0_204_7611)">
<path d="M6.27799 9.33333H15.6113V11.6667H6.27799V36.1667H15.6113V38.5H3.94466V11.6667C3.94466 11.0478 4.19049 10.4543 4.62808 10.0168C5.06566 9.57917 5.65916 9.33333 6.27799 9.33333Z" fill="#DEFF1C"/>
<path d="M19.2517 3.5H35.305C35.961 3.5 36.5901 3.76058 37.0539 4.22442C37.5177 4.68826 37.7783 5.31736 37.7783 5.97333V38.5H16.7783V5.97333C16.7783 5.31736 17.0389 4.68826 17.5027 4.22442C17.9666 3.76058 18.5957 3.5 19.2517 3.5ZM19.1117 36.1667H22.6117V32.6667H31.945V36.1667H35.445V5.97333C35.445 5.95495 35.4414 5.93674 35.4343 5.91976C35.4273 5.90277 35.417 5.88734 35.404 5.87434C35.391 5.86134 35.3755 5.85103 35.3586 5.84399C35.3416 5.83695 35.3234 5.83333 35.305 5.83333H19.2517C19.2333 5.83333 19.2151 5.83695 19.1981 5.84399C19.1811 5.85103 19.1657 5.86134 19.1527 5.87434C19.1397 5.88734 19.1293 5.90277 19.1223 5.91976C19.1153 5.93674 19.1117 5.95495 19.1117 5.97333V36.1667Z" fill="#DEFF1C"/>
<path d="M33.1113 9.33333H30.778V11.6667H33.1113V9.33333Z" fill="#DEFF1C"/>
<path d="M28.4448 9.33333H26.1115V11.6667H28.4448V9.33333Z" fill="#DEFF1C"/>
<path d="M23.7783 9.33333H21.445V11.6667H23.7783V9.33333Z" fill="#DEFF1C"/>
<path d="M33.1113 15.1667H30.778V17.5H33.1113V15.1667Z" fill="#DEFF1C"/>
<path d="M28.4448 15.1667H26.1115V17.5H28.4448V15.1667Z" fill="#DEFF1C"/>
<path d="M23.7783 15.1667H21.445V17.5H23.7783V15.1667Z" fill="#DEFF1C"/>
<path d="M33.1113 21H30.778V23.3333H33.1113V21Z" fill="#DEFF1C"/>
<path d="M28.4448 21H26.1115V23.3333H28.4448V21Z" fill="#DEFF1C"/>
<path d="M23.7783 21H21.445V23.3333H23.7783V21Z" fill="#DEFF1C"/>
<path d="M33.1113 26.8333H30.778V29.1667H33.1113V26.8333Z" fill="#DEFF1C"/>
<path d="M28.4448 26.8333H26.1115V29.1667H28.4448V26.8333Z" fill="#DEFF1C"/>
<path d="M23.7783 26.8333H21.445V29.1667H23.7783V26.8333Z" fill="#DEFF1C"/>
<path d="M15.6113 15.1667H13.278V17.5H15.6113V15.1667Z" fill="#DEFF1C"/>
<path d="M10.9448 15.1667H8.61149V17.5H10.9448V15.1667Z" fill="#DEFF1C"/>
<path d="M15.6113 21H13.278V23.3333H15.6113V21Z" fill="#DEFF1C"/>
<path d="M10.9448 21H8.61149V23.3333H10.9448V21Z" fill="#DEFF1C"/>
<path d="M15.6113 26.8333H13.278V29.1667H15.6113V26.8333Z" fill="#DEFF1C"/>
<path d="M10.9448 26.8333H8.61149V29.1667H10.9448V26.8333Z" fill="#DEFF1C"/>
</g>
<defs>
<clipPath id="clip0_204_7611">
<rect width="42" height="42" fill="white" transform="matrix(-1 0 0 1 42.4448 0)"/>
</clipPath>
</defs>
</svg>
