<svg width="29" height="29" viewBox="0 0 29 29" fill="none" xmlns="http://www.w3.org/2000/svg">
<path d="M26.4 7.30547C22.22 0.825475 13.66 -1.09452 7.04 2.92548C0.579996 6.94548 -1.5 15.7055 2.68 22.1655L3.02 22.6855L1.62 27.9255L6.86 26.5255L7.38 26.8655C9.64 28.0855 12.1 28.7855 14.54 28.7855C17.16 28.7855 19.78 28.0855 22.04 26.6855C28.5 22.4855 30.42 13.9055 26.4 7.26547V7.30547ZM22.74 20.7855C22.04 21.8255 21.16 22.5255 19.94 22.7055C19.24 22.7055 18.36 23.0455 14.88 21.6655C11.92 20.2655 9.46 17.9855 7.72 15.3655C6.68 14.1455 6.14 12.5655 5.98 10.9855C5.98 9.58548 6.5 8.36548 7.38 7.48548C7.72 7.14547 8.08 6.96548 8.42 6.96548H9.3C9.64 6.96548 10 6.96548 10.18 7.66548C10.52 8.54548 11.4 10.6455 11.4 10.8255C11.58 11.0055 11.5 12.3455 10.7 13.1055C10.26 13.6055 10.18 13.6255 10.36 13.9855C11.06 15.0255 11.94 16.0855 12.8 16.9655C13.84 17.8455 14.9 18.5455 16.12 19.0655C16.46 19.2455 16.82 19.2455 17 18.8855C17.18 18.5455 18.04 17.6655 18.4 17.3055C18.74 16.9655 18.92 16.9655 19.28 17.1255L22.08 18.5255C22.42 18.7055 22.78 18.8655 22.96 19.0455C23.14 19.5655 23.14 20.2655 22.78 20.7855H22.74Z" fill="#172B4D"/>
</svg>
