<svg width="28" height="29" viewBox="0 0 28 29" fill="none" xmlns="http://www.w3.org/2000/svg">
<path d="M25.9 7.30547C21.72 0.825475 13.16 -1.09452 6.54 2.92548C0.0799961 6.94548 -2 15.7055 2.18 22.1655L2.52 22.6855L1.12 27.9255L6.36 26.5255L6.88 26.8655C9.14 28.0855 11.6 28.7855 14.04 28.7855C16.66 28.7855 19.28 28.0855 21.54 26.6855C28 22.4855 29.92 13.9055 25.9 7.26547V7.30547ZM22.24 20.7855C21.54 21.8255 20.66 22.5255 19.44 22.7055C18.74 22.7055 17.86 23.0455 14.38 21.6655C11.42 20.2655 8.96 17.9855 7.22 15.3655C6.18 14.1455 5.64 12.5655 5.48 10.9855C5.48 9.58548 6 8.36548 6.88 7.48548C7.22 7.14547 7.58 6.96548 7.92 6.96548H8.8C9.14 6.96548 9.5 6.96548 9.68 7.66548C10.02 8.54548 10.9 10.6455 10.9 10.8255C11.08 11.0055 11 12.3455 10.2 13.1055C9.76 13.6055 9.68 13.6255 9.85999 13.9855C10.56 15.0255 11.44 16.0855 12.3 16.9655C13.34 17.8455 14.4 18.5455 15.62 19.0655C15.96 19.2455 16.32 19.2455 16.5 18.8855C16.68 18.5455 17.54 17.6655 17.9 17.3055C18.24 16.9655 18.42 16.9655 18.78 17.1255L21.58 18.5255C21.92 18.7055 22.28 18.8655 22.46 19.0455C22.64 19.5655 22.64 20.2655 22.28 20.7855H22.24Z" fill="white"/>
</svg>
