<svg width="21" height="19" viewBox="0 0 21 19" fill="none" xmlns="http://www.w3.org/2000/svg">
<path d="M15.2993 0.0605469C16.6403 0.0605469 17.9303 0.590547 18.8793 1.54155C19.8293 2.49055 20.3603 3.77055 20.3603 5.11055V13.0105C20.3603 15.8005 18.0903 18.0605 15.2993 18.0605H5.42029C2.62929 18.0605 0.360291 15.8005 0.360291 13.0105V5.11055C0.360291 2.32055 2.61929 0.0605469 5.42029 0.0605469H15.2993ZM16.4303 5.26055C16.2203 5.24955 16.0203 5.32055 15.8693 5.46055L11.3603 9.06055C10.7803 9.54155 9.94929 9.54155 9.36029 9.06055L4.86029 5.46055C4.54929 5.23055 4.11929 5.26055 3.86029 5.53055C3.59029 5.80055 3.56029 6.23055 3.78929 6.53055L3.92029 6.66055L8.47029 10.2105C9.03029 10.6505 9.70929 10.8905 10.4203 10.8905C11.1293 10.8905 11.8203 10.6505 12.3793 10.2105L16.8903 6.60055L16.9703 6.52055C17.2093 6.23055 17.2093 5.81055 16.9593 5.52055C16.8203 5.37155 16.6293 5.28055 16.4303 5.26055Z" fill="#7009B3"/>
</svg>
