<svg width="39" height="36" viewBox="0 0 39 36" fill="none" xmlns="http://www.w3.org/2000/svg">
<path d="M29.1903 14.2452C30.2451 13.1904 30.2451 11.4948 30.2451 8.09996C30.2451 4.70515 30.2451 3.00955 29.1903 1.95474M29.1903 14.2452C28.1355 15.3 26.4399 15.3 23.0451 15.3H15.845C12.4502 15.3 10.7546 15.3 9.69982 14.2452M29.1903 1.95474C28.1355 0.899941 26.4399 0.899941 23.0451 0.899941H15.845C12.4502 0.899941 10.7546 0.899941 9.69982 1.95474M9.69982 1.95474C8.64502 3.00955 8.64502 4.70515 8.64502 8.09996C8.64502 11.4948 8.64502 13.1904 9.69982 14.2452M21.2451 8.09996C21.2451 8.57736 21.0554 9.03519 20.7179 9.37276C20.3803 9.71033 19.9224 9.89997 19.4451 9.89997C18.9677 9.89997 18.5098 9.71033 18.1723 9.37276C17.8347 9.03519 17.645 8.57736 17.645 8.09996C17.645 7.62257 17.8347 7.16474 18.1723 6.82717C18.5098 6.4896 18.9677 6.29996 19.4451 6.29996C19.9224 6.29996 20.3803 6.4896 20.7179 6.82717C21.0554 7.16474 21.2451 7.62257 21.2451 8.09996Z" stroke="#DEFF1C" stroke-width="1.5"/>
<path d="M30.2448 6.29996C28.8126 6.29996 27.4391 5.73103 26.4264 4.71833C25.4137 3.70563 24.8448 2.33212 24.8448 0.899941M30.2448 9.89997C28.8126 9.89997 27.4391 10.4689 26.4264 11.4816C25.4137 12.4943 24.8448 13.8678 24.8448 15.3M8.64473 6.29996C10.0769 6.29996 11.4504 5.73103 12.4631 4.71833C13.4758 3.70563 14.0447 2.33212 14.0447 0.899941M8.64473 9.89997C10.0769 9.89997 11.4504 10.4689 12.4631 11.4816C13.4758 12.4943 14.0447 13.8678 14.0447 15.3M6.84473 32.1984H10.9127C12.7307 32.1984 14.5722 32.3892 16.3416 32.7528C19.5008 33.3999 22.7508 33.4718 25.9356 32.9652C27.498 32.7132 29.0316 32.3262 30.4212 31.6566C31.674 31.05 33.2094 30.1986 34.2408 29.2428C35.2704 28.2888 36.3432 26.7282 37.1028 25.5078C37.758 24.4602 37.4412 23.1768 36.408 22.3974C35.8271 21.9759 35.1278 21.7489 34.41 21.7489C33.6923 21.7489 32.9929 21.9759 32.412 22.3974L29.1594 24.8544C27.8994 25.8084 26.5224 26.685 24.8826 26.946C24.6846 26.9772 24.4776 27.0054 24.2616 27.0306M24.2616 27.0306L24.0636 27.0522M24.2616 27.0306C24.5496 26.9526 24.8138 26.8041 25.0302 26.5986C25.3019 26.3643 25.5237 26.0778 25.6827 25.7561C25.8417 25.4344 25.9345 25.0841 25.9556 24.726C25.9768 24.3678 25.9258 24.009 25.8058 23.6709C25.6858 23.3327 25.4992 23.0221 25.257 22.7574C25.0224 22.497 24.7492 22.2742 24.447 22.0968C19.4124 19.0926 11.5769 21.3804 6.84473 24.7374M24.2616 27.0306C24.1966 27.0451 24.1302 27.0524 24.0636 27.0522M24.0636 27.0522C22.978 27.161 21.8844 27.1634 20.7984 27.0594" stroke="#DEFF1C" stroke-width="1.5" stroke-linecap="round"/>
<path d="M6.84484 23.4C6.84484 21.9088 5.63601 20.7 4.14483 20.7C2.65366 20.7 1.44482 21.9088 1.44482 23.4V32.4C1.44482 33.8912 2.65366 35.1001 4.14483 35.1001C5.63601 35.1001 6.84484 33.8912 6.84484 32.4V23.4Z" stroke="#DEFF1C" stroke-width="1.5"/>
</svg>
