<svg width="48" height="48" viewBox="0 0 48 48" fill="none" xmlns="http://www.w3.org/2000/svg">
<path fill-rule="evenodd" clip-rule="evenodd" d="M21.7143 43.4285H26.2857C26.9166 43.4285 27.4286 42.9165 27.4286 42.2857C27.4286 41.6548 26.9166 41.1428 26.2857 41.1428H21.7143C21.0834 41.1428 20.5714 41.6548 20.5714 42.2857C20.5714 42.9165 21.0834 43.4285 21.7143 43.4285Z" fill="white"/>
<path fill-rule="evenodd" clip-rule="evenodd" d="M20.5714 40H27.4286C28.0594 40 28.5714 39.488 28.5714 38.8572C28.5714 38.2263 28.0594 37.7143 27.4286 37.7143H20.5714C19.9406 37.7143 19.4286 38.2263 19.4286 38.8572C19.4286 39.488 19.9406 40 20.5714 40Z" fill="white"/>
<path fill-rule="evenodd" clip-rule="evenodd" d="M20.5222 36.5668L20.5714 36.5714H27.4285H27.4788C28.1097 36.5691 28.6194 36.0583 28.6194 35.4286C28.6194 33.5897 29.4297 31.8457 30.8342 30.6606C33.1257 28.7954 34.1279 25.9348 34.1279 22.6994C34.1279 17.1097 29.5897 12.5714 23.9999 12.5714C18.4102 12.5714 13.8719 17.1097 13.8719 22.6994C13.8719 25.9451 14.8822 28.8126 17.2079 30.6331C18.6114 31.8183 19.4285 33.5748 19.4285 35.4274C19.4285 36.3668 20.3039 36.5383 20.5222 36.5668ZM26.4114 34.2857H21.6377C21.3554 32.1828 20.2994 30.2446 18.6537 28.8628C18.6434 28.8548 18.6331 28.8457 18.6228 28.8377C16.8319 27.44 16.1577 25.1943 16.1577 22.6994C16.1577 18.3714 19.6719 14.8571 23.9999 14.8571C28.3279 14.8571 31.8422 18.3714 31.8422 22.6994C31.8422 25.2011 31.1611 27.4526 29.3919 28.8868C29.3874 28.8903 29.3817 28.8948 29.3771 28.8994C27.7428 30.272 26.6925 32.1977 26.4114 34.2857Z" fill="white"/>
<path fill-rule="evenodd" clip-rule="evenodd" d="M22.8583 28.5714L22.8572 30.8571C22.8572 31.488 23.3692 32 24 32C24.6309 32 25.1429 31.488 25.1429 30.8571V28.6274C25.144 28.6091 25.144 28.5897 25.144 28.5714C25.144 28.112 25.4172 27.696 25.8377 27.512C27.3326 26.8708 28.5497 25.8217 28.5714 23.8697C28.5989 21.3428 26.5269 19.2857 24 19.2857C21.4766 19.2857 19.4286 21.3337 19.4286 23.8571C19.4286 24.488 19.9406 25 20.5714 25C21.2023 25 21.7143 24.488 21.7143 23.8571C21.7143 22.5954 22.7383 21.5714 24 21.5714C25.2583 21.5714 26.2994 22.5863 26.2857 23.8446C26.2766 24.7337 25.6126 25.1223 24.9314 25.4137C24.9292 25.4148 24.9269 25.416 24.9246 25.4171C23.6697 25.9634 22.8583 27.2023 22.8583 28.5714Z" fill="white"/>
<path fill-rule="evenodd" clip-rule="evenodd" d="M25.1429 10.2857V7.99997C25.1429 7.36912 24.6309 6.85712 24 6.85712C23.3692 6.85712 22.8572 7.36912 22.8572 7.99997V10.2857C22.8572 10.9165 23.3692 11.4285 24 11.4285C24.6309 11.4285 25.1429 10.9165 25.1429 10.2857Z" fill="white"/>
<path fill-rule="evenodd" clip-rule="evenodd" d="M34.9097 15.2777L36.5257 13.6617C36.9714 13.2148 36.9714 12.4914 36.5257 12.0446C36.08 11.5988 35.3554 11.5988 34.9097 12.0446L33.2925 13.6617C32.8468 14.1074 32.8468 14.832 33.2925 15.2777C33.7394 15.7234 34.4628 15.7234 34.9097 15.2777Z" fill="white"/>
<path fill-rule="evenodd" clip-rule="evenodd" d="M38.2857 25.7131H40.5714C41.2023 25.7131 41.7143 25.2011 41.7143 24.5703C41.7143 23.9394 41.2023 23.4274 40.5714 23.4274H38.2857C37.6548 23.4274 37.1428 23.9394 37.1428 24.5703C37.1428 25.2011 37.6548 25.7131 38.2857 25.7131Z" fill="white"/>
<path fill-rule="evenodd" clip-rule="evenodd" d="M33.2949 35.48L34.9109 37.096C35.3577 37.5417 36.0811 37.5417 36.5269 37.096C36.9737 36.6503 36.9737 35.9257 36.5269 35.48L34.9109 33.864C34.4651 33.4172 33.7406 33.4172 33.2949 33.864C32.8491 34.3097 32.8491 35.0343 33.2949 35.48Z" fill="white"/>
<path fill-rule="evenodd" clip-rule="evenodd" d="M13.0926 33.8674L11.4766 35.4834C11.0309 35.9303 11.0309 36.6537 11.4766 37.0994C11.9223 37.5463 12.6469 37.5463 13.0926 37.0994L14.7086 35.4834C15.1555 35.0366 15.1543 34.3131 14.7086 33.8674C14.2629 33.4206 13.5383 33.4206 13.0926 33.8674Z" fill="white"/>
<path fill-rule="evenodd" clip-rule="evenodd" d="M9.71434 23.432L7.42862 23.4331C6.79777 23.4331 6.28577 23.9451 6.28577 24.576C6.28577 25.2069 6.79777 25.7189 7.42862 25.7189L9.71434 25.7177C10.3452 25.7177 10.8572 25.2057 10.8572 24.5749C10.8572 23.944 10.3452 23.432 9.71434 23.432Z" fill="white"/>
<path fill-rule="evenodd" clip-rule="evenodd" d="M14.7028 13.6651L13.0868 12.0491C12.64 11.6034 11.9165 11.6034 11.4708 12.0491C11.024 12.4948 11.0251 13.2194 11.4708 13.6651L13.088 15.2811C13.5337 15.7268 14.2583 15.7268 14.704 15.2811C15.1497 14.8343 15.1497 14.1108 14.7028 13.6651Z" fill="white"/>
</svg>
