<svg width="48" height="49" viewBox="0 0 48 49" fill="none" xmlns="http://www.w3.org/2000/svg">
<path d="M20.0054 24.1219C20.0054 21.9109 21.7968 20.1181 24.0072 20.1181C26.2176 20.1181 28.0099 21.9109 28.0099 24.1219C28.0099 26.333 26.2176 28.1258 24.0072 28.1258C21.7968 28.1258 20.0054 26.333 20.0054 24.1219ZM17.8416 24.1219C17.8416 27.5282 20.602 30.2893 24.0072 30.2893C27.4124 30.2893 30.1728 27.5282 30.1728 24.1219C30.1728 20.7157 27.4124 17.9546 24.0072 17.9546C20.602 17.9546 17.8416 20.7157 17.8416 24.1219ZM28.976 17.7101C28.9759 17.9951 29.0603 18.2738 29.2185 18.5109C29.3767 18.748 29.6017 18.9328 29.8649 19.042C30.1281 19.1512 30.4178 19.1799 30.6974 19.1244C30.9769 19.0689 31.2337 18.9317 31.4353 18.7302C31.6369 18.5287 31.7742 18.272 31.8299 17.9924C31.8856 17.7128 31.8572 17.423 31.7482 17.1596C31.6393 16.8962 31.4547 16.6711 31.2178 16.5126C30.9809 16.3541 30.7024 16.2695 30.4174 16.2694C30.0355 16.2696 29.6686 16.4214 29.3984 16.6915C29.1282 16.9616 28.9763 17.328 28.976 17.7101ZM19.1563 33.8983C17.9856 33.845 17.3494 33.65 16.9265 33.4852C16.3659 33.2669 15.9659 33.0069 15.5454 32.5868C15.1248 32.1667 14.8645 31.767 14.6473 31.2062C14.4824 30.7834 14.2874 30.1468 14.2342 28.9758C14.176 27.7098 14.1644 27.3295 14.1644 24.122C14.1644 20.9146 14.177 20.5354 14.2342 19.2683C14.2875 18.0973 14.484 17.4619 14.6473 17.0379C14.8655 16.4771 15.1254 16.077 15.5454 15.6563C15.9654 15.2357 16.365 14.9753 16.9265 14.758C17.3492 14.5931 17.9856 14.398 19.1563 14.3448C20.4219 14.2866 20.8021 14.2749 24.0072 14.2749C27.2123 14.2749 27.5928 14.2875 28.8596 14.3448C30.0302 14.3981 30.6654 14.5946 31.0893 14.758C31.6499 14.9753 32.0499 15.2363 32.4705 15.6563C32.891 16.0764 33.1503 16.4771 33.3686 17.0379C33.5334 17.4606 33.7284 18.0973 33.7816 19.2683C33.8399 20.5354 33.8515 20.9146 33.8515 24.122C33.8515 27.3295 33.8399 27.7087 33.7816 28.9758C33.7283 30.1468 33.5324 30.7833 33.3686 31.2062C33.1503 31.767 32.8904 32.1671 32.4705 32.5868C32.0505 33.0065 31.6499 33.2669 31.0893 33.4852C30.6667 33.6501 30.0302 33.8451 28.8596 33.8983C27.5939 33.9566 27.2137 33.9682 24.0072 33.9682C20.8007 33.9682 20.4216 33.9566 19.1563 33.8983ZM19.0569 12.184C17.7786 12.2422 16.9052 12.445 16.1424 12.7419C15.3524 13.0485 14.6837 13.4598 14.0154 14.1272C13.3471 14.7947 12.9369 15.4647 12.6304 16.2549C12.3336 17.0184 12.1309 17.8916 12.0727 19.1702C12.0135 20.4508 12 20.8602 12 24.1219C12 27.3837 12.0135 27.7931 12.0727 29.0737C12.1309 30.3524 12.3336 31.2255 12.6304 31.989C12.9369 32.7788 13.3472 33.4495 14.0154 34.1166C14.6836 34.7838 15.3524 35.1945 16.1424 35.502C16.9066 35.7989 17.7786 36.0016 19.0569 36.0599C20.3378 36.1181 20.7464 36.1326 24.0072 36.1326C27.268 36.1326 27.6773 36.1191 28.9575 36.0599C30.2359 36.0016 31.1087 35.7989 31.872 35.502C32.6615 35.1945 33.3307 34.7841 33.999 34.1166C34.6673 33.4492 35.0766 32.7788 35.384 31.989C35.6808 31.2255 35.8844 30.3523 35.9417 29.0737C35.9999 27.7921 36.0134 27.3837 36.0134 24.1219C36.0134 20.8602 35.9999 20.4508 35.9417 19.1702C35.8835 17.8915 35.6808 17.0179 35.384 16.2549C35.0766 15.4651 34.6662 14.7957 33.999 14.1272C33.3318 13.4588 32.6615 13.0485 31.873 12.7419C31.1087 12.445 30.2358 12.2413 28.9585 12.184C27.6782 12.1258 27.2689 12.1113 24.0082 12.1113C20.7474 12.1113 20.3378 12.1248 19.0569 12.184Z" fill="#7009B3"/>
<path d="M20.0054 24.1219C20.0054 21.9109 21.7968 20.1181 24.0072 20.1181C26.2176 20.1181 28.0099 21.9109 28.0099 24.1219C28.0099 26.333 26.2176 28.1258 24.0072 28.1258C21.7968 28.1258 20.0054 26.333 20.0054 24.1219ZM17.8416 24.1219C17.8416 27.5282 20.602 30.2893 24.0072 30.2893C27.4124 30.2893 30.1728 27.5282 30.1728 24.1219C30.1728 20.7157 27.4124 17.9546 24.0072 17.9546C20.602 17.9546 17.8416 20.7157 17.8416 24.1219ZM28.976 17.7101C28.9759 17.9951 29.0603 18.2738 29.2185 18.5109C29.3767 18.748 29.6017 18.9328 29.8649 19.042C30.1281 19.1512 30.4178 19.1799 30.6974 19.1244C30.9769 19.0689 31.2337 18.9317 31.4353 18.7302C31.6369 18.5287 31.7742 18.272 31.8299 17.9924C31.8856 17.7128 31.8572 17.423 31.7482 17.1596C31.6393 16.8962 31.4547 16.6711 31.2178 16.5126C30.9809 16.3541 30.7024 16.2695 30.4174 16.2694C30.0355 16.2696 29.6686 16.4214 29.3984 16.6915C29.1282 16.9616 28.9763 17.328 28.976 17.7101ZM19.1563 33.8983C17.9856 33.845 17.3494 33.65 16.9265 33.4852C16.3659 33.2669 15.9659 33.0069 15.5454 32.5868C15.1248 32.1667 14.8645 31.767 14.6473 31.2062C14.4824 30.7834 14.2874 30.1468 14.2342 28.9758C14.176 27.7098 14.1644 27.3295 14.1644 24.122C14.1644 20.9146 14.177 20.5354 14.2342 19.2683C14.2875 18.0973 14.484 17.4619 14.6473 17.0379C14.8655 16.4771 15.1254 16.077 15.5454 15.6563C15.9654 15.2357 16.365 14.9753 16.9265 14.758C17.3492 14.5931 17.9856 14.398 19.1563 14.3448C20.4219 14.2866 20.8021 14.2749 24.0072 14.2749C27.2123 14.2749 27.5928 14.2875 28.8596 14.3448C30.0302 14.3981 30.6654 14.5946 31.0893 14.758C31.6499 14.9753 32.0499 15.2363 32.4705 15.6563C32.891 16.0764 33.1503 16.4771 33.3686 17.0379C33.5334 17.4606 33.7284 18.0973 33.7816 19.2683C33.8399 20.5354 33.8515 20.9146 33.8515 24.122C33.8515 27.3295 33.8399 27.7087 33.7816 28.9758C33.7283 30.1468 33.5324 30.7833 33.3686 31.2062C33.1503 31.767 32.8904 32.1671 32.4705 32.5868C32.0505 33.0065 31.6499 33.2669 31.0893 33.4852C30.6667 33.6501 30.0302 33.8451 28.8596 33.8983C27.5939 33.9566 27.2137 33.9682 24.0072 33.9682C20.8007 33.9682 20.4216 33.9566 19.1563 33.8983ZM19.0569 12.184C17.7786 12.2422 16.9052 12.445 16.1424 12.7419C15.3524 13.0485 14.6837 13.4598 14.0154 14.1272C13.3471 14.7947 12.9369 15.4647 12.6304 16.2549C12.3336 17.0184 12.1309 17.8916 12.0727 19.1702C12.0135 20.4508 12 20.8602 12 24.1219C12 27.3837 12.0135 27.7931 12.0727 29.0737C12.1309 30.3524 12.3336 31.2255 12.6304 31.989C12.9369 32.7788 13.3472 33.4495 14.0154 34.1166C14.6836 34.7838 15.3524 35.1945 16.1424 35.502C16.9066 35.7989 17.7786 36.0016 19.0569 36.0599C20.3378 36.1181 20.7464 36.1326 24.0072 36.1326C27.268 36.1326 27.6773 36.1191 28.9575 36.0599C30.2359 36.0016 31.1087 35.7989 31.872 35.502C32.6615 35.1945 33.3307 34.7841 33.999 34.1166C34.6673 33.4492 35.0766 32.7788 35.384 31.989C35.6808 31.2255 35.8844 30.3523 35.9417 29.0737C35.9999 27.7921 36.0134 27.3837 36.0134 24.1219C36.0134 20.8602 35.9999 20.4508 35.9417 19.1702C35.8835 17.8915 35.6808 17.0179 35.384 16.2549C35.0766 15.4651 34.6662 14.7957 33.999 14.1272C33.3318 13.4588 32.6615 13.0485 31.873 12.7419C31.1087 12.445 30.2358 12.2413 28.9585 12.184C27.6782 12.1258 27.2689 12.1113 24.0082 12.1113C20.7474 12.1113 20.3378 12.1248 19.0569 12.184Z" fill="#7009B3"/>
</svg>
