<svg width="48" height="49" viewBox="0 0 48 49" fill="none" xmlns="http://www.w3.org/2000/svg">
<path d="M18.4787 33.7869V20.8207H14.1728V33.7869H18.4787ZM16.3266 19.0507C17.8279 19.0507 18.7625 18.055 18.7625 16.8108C18.7344 15.5381 17.8279 14.5703 16.3552 14.5703C14.8815 14.5703 13.9189 15.5381 13.9189 16.8106C13.9189 18.0549 14.8532 19.0506 16.2984 19.0506L16.3266 19.0507ZM20.8621 33.7869H25.1677V26.5468C25.1677 26.1597 25.1958 25.7717 25.3095 25.4953C25.6207 24.7207 26.3291 23.9189 27.5189 23.9189C29.0766 23.9189 29.7001 25.1078 29.7001 26.8511V33.7869H34.0056V26.3525C34.0056 22.37 31.8816 20.5167 29.0487 20.5167C26.7261 20.5167 25.7061 21.816 25.1393 22.701H25.168V20.8211H20.8623C20.9185 22.0375 20.8621 33.7869 20.8621 33.7869Z" fill="#7009B3"/>
</svg>
