<svg width="26" height="35" viewBox="0 0 26 35" fill="none" xmlns="http://www.w3.org/2000/svg">
<path d="M22.3187 14.118V9.86804C22.3187 4.58635 18.1536 0.305542 13.0147 0.305542C7.87572 0.305542 3.7106 4.58635 3.7106 9.86804V14.118C1.99762 14.118 0.609253 15.545 0.609253 17.3055V20.493V21.5555V23.6805V24.743C0.609253 30.0247 4.77437 34.3055 9.91331 34.3055H16.116C21.2549 34.3055 25.4201 30.0247 25.4201 24.743V23.6805V21.5555V20.493V17.3055C25.4201 15.5439 24.0307 14.118 22.3187 14.118ZM5.77817 9.86804C5.77817 5.76042 9.01805 2.43054 13.0147 2.43054C17.0113 2.43054 20.2511 5.76042 20.2511 9.86804V14.118H18.1836V9.87017C18.1836 6.93554 15.87 4.55767 13.0147 4.55767C10.1593 4.55767 7.84574 6.93554 7.84574 9.87017V14.118H5.77817V9.86804ZM17.1498 9.86804V9.87123V14.118H8.87952V9.87017V9.86804C8.87952 7.52098 10.731 5.61804 13.0147 5.61804C15.2983 5.61804 17.1498 7.52098 17.1498 9.86804ZM23.3525 20.493V21.5555V23.6805V24.743C23.3525 28.8432 20.1054 32.1805 16.116 32.1805H9.91331C5.92394 32.1805 2.67682 28.8432 2.67682 24.743V23.6805V21.5555V20.493V17.3055C2.67682 16.719 3.13996 16.243 3.7106 16.243C4.40014 16.243 5.08864 16.243 5.77817 16.243H20.2511C20.9396 16.243 21.6281 16.243 22.3187 16.243C22.8883 16.243 23.3525 16.719 23.3525 17.3055V20.493Z" fill="#7009B3"/>
<path d="M13.0147 20.493C11.8734 20.493 10.9471 21.444 10.9471 22.618C10.9471 23.263 11.2913 24.488 11.6366 25.457C11.9178 26.2454 12.2714 26.8659 13.0147 26.8659C13.8231 26.8659 14.1115 26.2518 14.3937 25.4677C14.7431 24.4965 15.0822 23.2651 15.0822 22.618C15.0822 21.444 14.1559 20.493 13.0147 20.493Z" fill="#7009B3"/>
</svg>
