<svg width="53" height="31" viewBox="0 0 53 31" fill="none" xmlns="http://www.w3.org/2000/svg">
<path d="M14.3438 4.45312L17.7187 6.14062H21.0938" stroke="#7009B3" stroke-width="1.6"/>
<path d="M37.125 5.29684L36.0246 5.84705C35.647 6.0358 35.2123 6.07617 34.8063 5.96014L29.9857 4.58286C29.6842 4.49668 29.3722 4.45291 29.0586 4.45288H23.7437C23.1881 4.45288 22.6411 4.59013 22.1512 4.8523C21.6614 5.11448 21.2438 5.49351 20.9356 5.95581L16.875 12.0468H21.0344C21.3122 12.0468 21.5857 11.9783 21.8306 11.8472C22.0756 11.7161 22.2844 11.5265 22.4385 11.2954L23.124 10.2671C23.2781 10.0359 23.4869 9.84628 23.7319 9.7152C23.9768 9.58411 24.2503 9.51559 24.5281 9.51559H25.6453C25.9785 9.51556 26.3042 9.61426 26.5814 9.79903L39.4884 18.4036C39.7271 18.5627 39.9309 18.7689 40.0872 19.0094C40.2435 19.25 40.3491 19.52 40.3975 19.8027C40.4459 20.0855 40.4362 20.375 40.3688 20.6539C40.3015 20.9327 40.178 21.195 40.0059 21.4245L39.954 21.4937C39.6408 21.9112 39.1841 22.1978 38.672 22.2981C38.1598 22.3984 37.6287 22.3054 37.1812 22.0369L30.375 17.9531" stroke="#7009B3" stroke-width="1.6" stroke-linecap="round" stroke-linejoin="round"/>
<path d="M39.6562 17.9531L43.0312 13.7344" stroke="#7009B3" stroke-width="1.6"/>
<path d="M11.8125 17.9531L8.4375 14.5781" stroke="#7009B3" stroke-width="1.6"/>
<path d="M16.8685 1.0882L6.75421 17.1094L0.854187 13.7366" stroke="#7009B3" stroke-width="1.6" stroke-linecap="round" stroke-linejoin="round"/>
<path d="M18.5723 17.3745L18.662 17.4337C19.4305 17.9364 19.642 18.9594 19.136 19.7272L15.791 24.8037C15.2851 25.5715 14.259 25.7849 13.4905 25.2822L13.4008 25.2231C12.6322 24.7202 12.4208 23.6974 12.9267 22.9296L16.2718 17.8531C16.7777 17.0853 17.8037 16.8717 18.5723 17.3745Z" stroke="#7009B3" stroke-width="1.6" stroke-linecap="round" stroke-linejoin="round"/>
<path d="M20.5067 20.6722C21.289 21.184 21.5066 22.2258 20.9947 23.0081L18.6847 26.5383C18.1727 27.3204 17.1308 27.5381 16.3486 27.0263C15.5663 26.5143 15.3487 25.4724 15.8606 24.6901L18.1707 21.1602C18.6826 20.3778 19.7245 20.1602 20.5067 20.6722Z" stroke="#7009B3" stroke-width="1.6" stroke-linecap="round" stroke-linejoin="round"/>
<path d="M22.7571 23.2795C23.5418 23.7876 23.7657 24.8291 23.259 25.6148L21.7554 27.9463C21.2487 28.732 20.2091 28.9555 19.4244 28.4472C18.6397 27.9391 18.4159 26.8976 18.9226 26.1119L20.4261 23.7804C20.9328 22.9947 21.9724 22.7712 22.7571 23.2795Z" stroke="#7009B3" stroke-width="1.6" stroke-linecap="round" stroke-linejoin="round"/>
<path d="M14.5909 17.3508C15.3756 17.8589 15.5994 18.9005 15.0927 19.6862L13.5892 22.0176C13.0825 22.8033 12.0428 23.0267 11.2581 22.5184C10.4734 22.0103 10.2496 20.9687 10.7563 20.183L12.2598 17.8516C12.7665 17.0659 13.8062 16.8425 14.5909 17.3508Z" stroke="#7009B3" stroke-width="1.6" stroke-linecap="round" stroke-linejoin="round"/>
<path d="M35.444 1.0882L45.5583 17.1094L51.4583 13.7366" stroke="#7009B3" stroke-width="1.6" stroke-linecap="round" stroke-linejoin="round"/>
<path d="M37.5493 22.638L36.8249 23.6359C36.4483 24.1546 35.889 24.5111 35.2598 24.6335C34.6306 24.7559 33.9785 24.635 33.4349 24.2953L28.6875 21.3281" stroke="#7009B3" stroke-width="1.6" stroke-linecap="round" stroke-linejoin="round"/>
<path d="M35.0412 25.1367L34.2941 26.1661C33.9127 26.6915 33.3508 27.0575 32.716 27.194C32.0813 27.3305 31.4185 27.2279 30.8549 26.9058L27 24.7031" stroke="#7009B3" stroke-width="1.6" stroke-linecap="round" stroke-linejoin="round"/>
<path d="M31.0626 27.2729L30.3228 28.4036C30.0632 28.8004 29.6756 29.0963 29.2244 29.2424C28.7733 29.3885 28.2857 29.376 27.8427 29.2068L22.7812 27.2729" stroke="#7009B3" stroke-width="1.6" stroke-linejoin="round"/>
<path d="M5.90625 12.0469C5.90625 12.2707 5.81736 12.4852 5.65912 12.6434C5.50089 12.8017 5.28628 12.8906 5.0625 12.8906C4.83872 12.8906 4.62411 12.8017 4.46588 12.6434C4.30764 12.4852 4.21875 12.2707 4.21875 12.0469C4.21875 11.8231 4.30764 11.6086 4.46588 11.4503C4.62411 11.2921 4.83872 11.2031 5.0625 11.2031C5.28628 11.2031 5.50089 11.2921 5.65912 11.4503C5.81736 11.6086 5.90625 11.8231 5.90625 12.0469Z" fill="#7009B3"/>
<path d="M48.0938 12.0469C48.0938 12.2707 48.0049 12.4852 47.8466 12.6434C47.6884 12.8017 47.4738 12.8906 47.25 12.8906C47.0262 12.8906 46.8116 12.8017 46.6534 12.6434C46.4951 12.4852 46.4062 12.2707 46.4062 12.0469C46.4062 11.8231 46.4951 11.6086 46.6534 11.4503C46.8116 11.2921 47.0262 11.2031 47.25 11.2031C47.4738 11.2031 47.6884 11.2921 47.8466 11.4503C48.0049 11.6086 48.0938 11.8231 48.0938 12.0469Z" fill="#7009B3"/>
</svg>
