<svg width="36" height="36" viewBox="0 0 36 36" fill="none" xmlns="http://www.w3.org/2000/svg">
<path d="M14.0146 20.3055C13.1866 20.3055 12.5146 20.9775 12.5146 21.8055C12.5146 22.6335 13.1866 23.3055 14.0146 23.3055C14.8426 23.3055 15.5146 22.6335 15.5146 21.8055C15.5146 20.9775 14.8426 20.3055 14.0146 20.3055Z" fill="#7009B3"/>
<path d="M14.0146 18.8055C15.6691 18.8055 17.0146 20.151 17.0146 21.8055C17.0146 23.46 15.6691 24.8055 14.0146 24.8055C12.3601 24.8055 11.0146 23.46 11.0146 21.8055C11.0146 20.151 12.3601 18.8055 14.0146 18.8055ZM14.0146 17.3055C11.5291 17.3055 9.51465 19.3208 9.51465 21.8055C9.51465 24.291 11.5291 26.3055 14.0146 26.3055C16.4994 26.3055 18.5146 24.291 18.5146 21.8055C18.5146 19.32 16.4994 17.3055 14.0146 17.3055Z" fill="#7009B3"/>
<path d="M14.0146 14.3055C18.1501 14.3055 21.5146 17.67 21.5146 21.8055C21.5146 25.941 18.1501 29.3055 14.0146 29.3055C9.87915 29.3055 6.51465 25.941 6.51465 21.8055C6.51465 17.67 9.87915 14.3055 14.0146 14.3055ZM14.0146 12.8055C9.0444 12.8055 5.01465 16.8353 5.01465 21.8055C5.01465 26.7758 9.0444 30.8055 14.0146 30.8055C18.9849 30.8055 23.0146 26.7758 23.0146 21.8055C23.0146 16.8353 18.9849 12.8055 14.0146 12.8055Z" fill="#7009B3"/>
<path d="M14.0146 9.80554C20.6311 9.80554 26.0146 15.189 26.0146 21.8055C26.0146 28.422 20.6311 33.8055 14.0146 33.8055C7.39815 33.8055 2.01465 28.422 2.01465 21.8055C2.01465 15.189 7.39815 9.80554 14.0146 9.80554ZM14.0146 8.30554C6.55965 8.30554 0.514648 14.3505 0.514648 21.8055C0.514648 29.2605 6.55965 35.3055 14.0146 35.3055C21.4696 35.3055 27.5146 29.2605 27.5146 21.8055C27.5146 14.3505 21.4696 8.30554 14.0146 8.30554Z" fill="#7009B3"/>
<path d="M31.0445 5.83592L29.9839 4.77527L13.4839 21.2753L14.5445 22.3359L31.0445 5.83592Z" fill="#7009B3"/>
<path d="M29.7646 2.98879V4.55554V6.05554H31.2646H32.8276C31.8451 8.22379 30.2423 10.7355 28.5826 10.7355C27.9083 10.7355 27.1486 10.3178 26.3251 9.49504C24.8438 8.01379 25.0628 7.12129 25.1348 6.82804C25.4993 5.34079 27.7148 3.91504 29.7646 2.98879ZM31.2646 0.805542C31.2646 0.805542 19.2646 4.55554 25.2646 10.5555C26.4646 11.7555 27.5746 12.2355 28.5826 12.2355C32.6146 12.2355 35.0146 4.55554 35.0146 4.55554H31.2646V0.805542Z" fill="#7009B3"/>
<path d="M28.2646 3.05554H26.7646V8.30554H28.2646V3.05554Z" fill="#7009B3"/>
<path d="M1.26459 35.3055C1.07259 35.3055 0.880592 35.232 0.734342 35.0858C0.441092 34.7925 0.441092 34.3185 0.734342 34.0253L3.93834 30.8213C4.23159 30.528 4.70559 30.528 4.99884 30.8213C5.29209 31.1145 5.29209 31.5885 4.99884 31.8818L1.79484 35.0858C1.64859 35.232 1.45659 35.3055 1.26459 35.3055Z" fill="#7009B3"/>
<path d="M26.7646 35.3055C26.5726 35.3055 26.3806 35.232 26.2344 35.0858L23.0296 31.881C22.7364 31.5878 22.7364 31.1138 23.0296 30.8205C23.3229 30.5273 23.7969 30.5273 24.0901 30.8205L27.2949 34.0253C27.5881 34.3185 27.5881 34.7925 27.2949 35.0858C27.1486 35.232 26.9566 35.3055 26.7646 35.3055Z" fill="#7009B3"/>
</svg>
