<svg width="48" height="49" viewBox="0 0 48 49" fill="none" xmlns="http://www.w3.org/2000/svg">
<path d="M35.9131 16.4616C35.1206 16.803 34.2874 17.0407 33.4341 17.1689C33.833 17.1004 34.42 16.3817 34.6537 16.0908C35.0086 15.652 35.2792 15.1511 35.4515 14.6135C35.4515 14.5736 35.4914 14.5165 35.4515 14.488C35.4314 14.477 35.4089 14.4713 35.386 14.4713C35.3631 14.4713 35.3405 14.477 35.3204 14.488C34.3939 14.9902 33.4078 15.3735 32.3855 15.6288C32.3499 15.6397 32.3119 15.6407 32.2758 15.6316C32.2396 15.6226 32.2066 15.6039 32.1803 15.5775C32.1008 15.4826 32.0151 15.3931 31.9239 15.3094C31.5069 14.9354 31.0338 14.6294 30.5219 14.4024C29.831 14.1187 29.0846 13.9958 28.3392 14.0431C27.616 14.0888 26.9099 14.283 26.2648 14.6135C25.6296 14.962 25.0713 15.4354 24.6235 16.0053C24.1525 16.5918 23.8124 17.2726 23.6262 18.0017C23.4727 18.6952 23.4552 19.412 23.5749 20.1121C23.5749 20.2319 23.5749 20.249 23.4723 20.2319C19.409 19.633 16.0751 18.1899 13.351 15.0926C13.2313 14.9557 13.1687 14.9557 13.0718 15.0926C11.8864 16.8951 12.462 19.7471 13.9437 21.156C14.1432 21.3442 14.3483 21.5267 14.5649 21.6979C13.8855 21.6496 13.2228 21.4653 12.6159 21.156C12.5019 21.0818 12.4392 21.1218 12.4335 21.2587C12.4173 21.4484 12.4173 21.6393 12.4335 21.8291C12.5524 22.7386 12.9105 23.6002 13.4713 24.3258C14.032 25.0514 14.7752 25.6149 15.6249 25.9588C15.832 26.0476 16.0479 26.1145 16.2689 26.1584C15.64 26.2823 14.9949 26.3016 14.3597 26.2154C14.223 26.1869 14.1717 26.2611 14.223 26.3923C15.0607 28.6739 16.8787 29.3697 18.2122 29.7576C18.3946 29.7861 18.577 29.7861 18.7821 29.8318C18.7821 29.8318 18.7821 29.8318 18.7479 29.866C18.3547 30.5847 16.7647 31.0695 16.0352 31.3205C14.7038 31.7992 13.2842 31.9822 11.875 31.8567C11.6527 31.8225 11.6015 31.8282 11.5445 31.8567C11.4875 31.8852 11.5445 31.948 11.6071 32.005C11.8921 32.1932 12.177 32.3587 12.4734 32.5184C13.3556 33 14.2883 33.3826 15.2545 33.6592C20.2581 35.0395 25.8887 34.0242 29.6443 30.2881C32.5964 27.3562 33.6336 23.3121 33.6336 19.2622C33.6336 19.1082 33.8216 19.017 33.9299 18.9371C34.6768 18.3547 35.3352 17.6668 35.8846 16.8951C35.9798 16.78 36.0286 16.6336 36.0214 16.4844C36.0214 16.3988 36.0214 16.4159 35.9131 16.4616Z" fill="#7009B3"/>
</svg>
