<svg width="28" height="20" viewBox="0 0 28 20" fill="none" xmlns="http://www.w3.org/2000/svg">
<path d="M26.7899 3.45835C26.4765 2.28015 25.5494 1.35065 24.3699 1.03215C22.2371 0.460449 13.68 0.460449 13.68 0.460449C13.68 0.460449 5.1273 0.460449 2.9902 1.03215C1.8151 1.34635 0.888 2.27575 0.5702 3.45835C-5.96046e-08 5.59645 0 10.0604 0 10.0604C0 10.0604 -5.96046e-08 14.5245 0.5702 16.6627C0.8836 17.8409 1.8107 18.7703 2.9902 19.0888C5.1273 19.6604 13.68 19.6604 13.68 19.6604C13.68 19.6604 22.2371 19.6604 24.3699 19.0888C25.545 18.7746 26.4721 17.8453 26.7899 16.6627C27.36 14.5245 27.36 10.0604 27.36 10.0604C27.36 10.0604 27.36 5.59645 26.7899 3.45835Z" fill="#7009B3"/>
<path d="M10.9467 14.1757L18.0543 10.0607L10.9467 5.9458V14.1757Z" fill="white"/>
</svg>
